<?xml version="1.0" encoding="UTF-8"?>
<svg version="1.1" xmlns="http://www.w3.org/2000/svg" width="57" height="55">
<path d="M0 0 C0.99 0 1.98 0 3 0 C2.38621882 4.91024946 0.27516294 8.66985117 -2 13 C1.3 9.7 4.6 6.4 8 3 C8.99 3.33 9.98 3.66 11 4 C9.46356148 7.68069887 7.21849055 9.98775204 4.375 12.75 C3.55773438 13.54921875 2.74046875 14.3484375 1.8984375 15.171875 C1.27195313 15.77515625 0.64546875 16.3784375 0 17 C0.825 17.9075 1.65 18.815 2.5 19.75 C5.03294997 22.53624497 5 22.87258261 5 27 C6.32 27 7.64 27 9 27 C8.73352613 34.19479456 6.39499509 39.29261054 2 45 C-1.1875 47.3125 -1.1875 47.3125 -4 49 C-5.73490246 51.58443323 -5.73490246 51.58443323 -7 54 C-9.50497004 55.25248502 -11.20853274 55.11374406 -14.0078125 55.09765625 C-14.99394531 55.09443359 -15.98007812 55.09121094 -16.99609375 55.08789062 C-18.02863281 55.07951172 -19.06117187 55.07113281 -20.125 55.0625 C-21.68541016 55.05573242 -21.68541016 55.05573242 -23.27734375 55.04882812 C-25.85161962 55.03701952 -28.42578146 55.02055075 -31 55 C-31 53.02 -31 51.04 -31 49 C-32.051875 48.7215625 -32.051875 48.7215625 -33.125 48.4375 C-38.90891964 45.54554018 -42.65539615 39.92320972 -45 34 C-45.6875 30.125 -45.6875 30.125 -46 27 C-45.01 27 -44.02 27 -43 27 C-42.95875 25.989375 -42.9175 24.97875 -42.875 23.9375 C-42.19106807 19.13043557 -39.5196682 16.18405192 -36 13 C-31.75260961 10.3597303 -26.86681584 10.43349234 -22 11 C-18.84950147 12.22519387 -16.71440091 13.25812214 -14.375 15.6875 C-12.83457352 17.46031716 -12.83457352 17.46031716 -9 17 C-8.74089844 16.30519531 -8.48179688 15.61039063 -8.21484375 14.89453125 C-6.86632501 11.68150106 -5.28285215 8.71753959 -3.5625 5.6875 C-2.96566406 4.61886719 -2.36882813 3.55023438 -1.75390625 2.44921875 C-1.17511719 1.64097656 -0.59632812 0.83273438 0 0 Z M-35 17 C-38.15110054 20.15110054 -39.4938686 22.57135029 -40 27 C-39.34 27 -38.68 27 -38 27 C-37.5875 26.071875 -37.175 25.14375 -36.75 24.1875 C-34.17991632 19.50627615 -34.17991632 19.50627615 -31 18 C-27.10440251 17.33090883 -23.57260899 17.07757355 -20.08203125 19.125 C-18.4375 20.5 -18.4375 20.5 -16 23 C-15.67 22.34 -15.34 21.68 -15 21 C-18.11371882 17.61939099 -20.54087397 15.29079964 -25 14 C-28.98734393 14 -31.45583845 15.19683009 -35 17 Z M-34 24 C-34 24.99 -34 25.98 -34 27 C-33.34 27 -32.68 27 -32 27 C-30.36323743 25.0399719 -30.36323743 25.0399719 -29 23 C-26.125 23.3125 -26.125 23.3125 -23 24 C-22.01 25.485 -22.01 25.485 -21 27 C-20.34 27 -19.68 27 -19 27 C-20.24976756 23.34683329 -20.67098753 22.21934164 -24 20 C-28.6051331 19.27287372 -30.77009353 20.77009353 -34 24 Z M-10.9375 21.75 C-13.33786231 23.85986393 -13.33786231 23.85986393 -13 27 C-12.34 27 -11.68 27 -11 27 C-9.36323743 25.0399719 -9.36323743 25.0399719 -8 23 C-5.125 23.3125 -5.125 23.3125 -2 24 C-1.01 25.485 -1.01 25.485 0 27 C0.66 26.67 1.32 26.34 2 26 C0.99083177 23.4251788 0.99083177 23.4251788 -1 21 C-5.24529251 19.66351903 -7.07407502 19.44838512 -10.9375 21.75 Z M-41 31 C-39.67929911 37.60350443 -37.22409018 41.11435833 -32.125 45.4375 C-28.48773049 47.25613476 -26.01499502 47.3211996 -22 47 C-22.33 48.32 -22.66 49.64 -23 51 C-19.7 51 -16.4 51 -13 51 C-13 49.68 -13 48.36 -13 47 C-12.01 46.979375 -11.02 46.95875 -10 46.9375 C-4.77226853 46.19371707 -1.438923 42.79520782 2 39 C4.35144809 35.23834515 4.35144809 35.23834515 5 31 C-10.18 31 -25.36 31 -41 31 Z " fill="#AC333D" transform="translate(46,0)"/>
</svg>
